# xmcd
#
# Track frame offsets:
# 150
# 19639
# 36743
# 58188
# 79397
# 101234
# 124598
# 144454
# 169069
# 191810
#
# Disc length: 2822 seconds
#
# Revision: 0
# Processed by: cddbd v1.4PL0 Copyright (c) Steve Scherf et al.
# Submitted via: MacMP3 Pro 5.0 (http://mp3.act2.co.jp/)
#
DISCID=920b040a
DTITLE=F.L.P - F.L.P PROJECT
DYEAR=1900
DGENRE=
TTITLE0=LIFE IS EMPTY
TTITLE1=‡ß« 
TTITLE2=MOLT BAR
TTITLE3=TAKE'N PRIDE IN MY LOVE
TTITLE4=INFINITY
TTITLE5=«?«°«?Í?«?Ô<sum>«©«<pi>«?
TTITLE6=…t…‚…Ï…N
TTITLE7=BONDAGE
TTITLE8=‡ß«<sum>«»Íl« 
TTITLE9=LOVE OPERATIONS
EXTD=
EXTT0=
EXTT1=
EXTT2=
EXTT3=
EXTT4=
EXTT5=
EXTT6=
EXTT7=
EXTT8=
EXTT9=
PLAYORDER=
